<svg xmlns="http://www.w3.org/2000/svg" xmlns:xlink="http://www.w3.org/1999/xlink" width="1148" zoomAndPan="magnify" viewBox="0 0 860.88 289.499996" height="386" preserveAspectRatio="xMidYMid meet" version="1.2"><defs><clipPath id="aaab794491"><path d="M 311.496094 85.234375 L 384.871094 85.234375 L 384.871094 189.304688 L 311.496094 189.304688 Z M 311.496094 85.234375 "/></clipPath></defs><g id="929c8d67b5"><path style=" stroke:none;fill-rule:nonzero;fill:#6357e9;fill-opacity:1;" d="M 348.0625 87.582031 C 367.035156 87.582031 382.410156 102.964844 382.410156 121.933594 C 382.410156 136.15625 356.886719 170.941406 348.0625 186.851562 C 339.597656 171.582031 313.710938 135.320312 313.710938 121.933594 C 313.710938 102.964844 329.09375 87.582031 348.0625 87.582031 Z M 363.414062 120.636719 C 363.414062 112.183594 356.519531 105.289062 348.0625 105.289062 C 339.609375 105.289062 332.714844 112.183594 332.714844 120.636719 C 332.714844 129.089844 339.609375 135.984375 348.0625 135.984375 C 356.519531 135.984375 363.414062 129.089844 363.414062 120.636719 Z M 363.414062 120.636719 "/><g clip-rule="nonzero" clip-path="url(#aaab794491)"><path style=" stroke:none;fill-rule:nonzero;fill:#363161;fill-opacity:1;" d="M 348.0625 189.074219 C 347.253906 189.074219 346.507812 188.636719 346.117188 187.929688 C 343.871094 183.878906 340.417969 178.386719 336.421875 172.027344 C 325.3125 154.355469 311.488281 132.363281 311.488281 121.933594 C 311.488281 101.765625 327.894531 85.359375 348.0625 85.359375 C 368.226562 85.359375 384.632812 101.765625 384.632812 121.933594 C 384.632812 132.90625 371.589844 153.425781 360.082031 171.53125 C 356.125 177.753906 352.390625 183.628906 350.003906 187.929688 C 349.613281 188.636719 348.867188 189.074219 348.0625 189.074219 Z M 348.0625 89.804688 C 330.347656 89.804688 315.933594 104.21875 315.933594 121.933594 C 315.933594 131.082031 329.953125 153.378906 340.183594 169.660156 C 343.207031 174.46875 345.921875 178.789062 348.0625 182.398438 C 350.363281 178.53125 353.28125 173.941406 356.328125 169.148438 C 366.398438 153.308594 380.1875 131.613281 380.1875 121.933594 C 380.1875 104.21875 365.773438 89.804688 348.0625 89.804688 Z M 348.0625 89.804688 "/></g><path style=" stroke:none;fill-rule:nonzero;fill:#363161;fill-opacity:1;" d="M 348.0625 138.207031 C 338.375 138.207031 330.492188 130.324219 330.492188 120.636719 C 330.492188 110.949219 338.375 103.066406 348.0625 103.066406 C 357.753906 103.066406 365.636719 110.949219 365.636719 120.636719 C 365.636719 130.324219 357.753906 138.207031 348.0625 138.207031 Z M 348.0625 107.511719 C 340.824219 107.511719 334.9375 113.402344 334.9375 120.636719 C 334.9375 127.875 340.824219 133.761719 348.0625 133.761719 C 355.300781 133.761719 361.191406 127.875 361.191406 120.636719 C 361.191406 113.402344 355.300781 107.511719 348.0625 107.511719 Z M 348.0625 107.511719 "/><g style="fill:#ffffff;fill-opacity:1;"><g transform="translate(381.512574, 189.291764)"><path style="stroke:none" d="M 109.15625 -89.421875 L 109.15625 0 L 87.375 0 L 87.375 -53.625 L 67.375 0 L 49.796875 0 L 29.671875 -53.75 L 29.671875 0 L 7.890625 0 L 7.890625 -89.421875 L 33.625 -89.421875 L 58.71875 -27.515625 L 83.5625 -89.421875 Z M 109.15625 -89.421875 "/></g></g><g style="fill:#ffffff;fill-opacity:1;"><g transform="translate(490.421046, 189.291764)"><path style="stroke:none" d="M 78.078125 -71.078125 L 78.078125 0 L 56.296875 0 L 56.296875 -9.6875 C 54.085938 -6.539062 51.09375 -4.007812 47.3125 -2.09375 C 43.539062 -0.1875 39.359375 0.765625 34.765625 0.765625 C 29.335938 0.765625 24.539062 -0.441406 20.375 -2.859375 C 16.21875 -5.285156 12.992188 -8.789062 10.703125 -13.375 C 8.410156 -17.957031 7.265625 -23.347656 7.265625 -29.546875 L 7.265625 -71.078125 L 28.921875 -71.078125 L 28.921875 -32.484375 C 28.921875 -27.722656 30.148438 -24.023438 32.609375 -21.390625 C 35.066406 -18.765625 38.378906 -17.453125 42.546875 -17.453125 C 46.785156 -17.453125 50.132812 -18.765625 52.59375 -21.390625 C 55.0625 -24.023438 56.296875 -27.722656 56.296875 -32.484375 L 56.296875 -71.078125 Z M 78.078125 -71.078125 "/></g></g><g style="fill:#ffffff;fill-opacity:1;"><g transform="translate(568.249117, 189.291764)"><path style="stroke:none" d="M 51.203125 -71.84375 C 59.523438 -71.84375 66.171875 -69.144531 71.140625 -63.75 C 76.109375 -58.351562 78.59375 -50.945312 78.59375 -41.53125 L 78.59375 0 L 56.9375 0 L 56.9375 -38.59375 C 56.9375 -43.351562 55.703125 -47.046875 53.234375 -49.671875 C 50.773438 -52.304688 47.46875 -53.625 43.3125 -53.625 C 39.144531 -53.625 35.828125 -52.304688 33.359375 -49.671875 C 30.898438 -47.046875 29.671875 -43.351562 29.671875 -38.59375 L 29.671875 0 L 7.890625 0 L 7.890625 -71.078125 L 29.671875 -71.078125 L 29.671875 -61.65625 C 31.878906 -64.789062 34.851562 -67.269531 38.59375 -69.09375 C 42.332031 -70.925781 46.535156 -71.84375 51.203125 -71.84375 Z M 51.203125 -71.84375 "/></g></g><g style="fill:#ffffff;fill-opacity:1;"><g transform="translate(646.077174, 189.291764)"><path style="stroke:none" d="M 18.84375 -78.46875 C 15.03125 -78.46875 11.910156 -79.59375 9.484375 -81.84375 C 7.066406 -84.09375 5.859375 -86.875 5.859375 -90.1875 C 5.859375 -93.582031 7.066406 -96.40625 9.484375 -98.65625 C 11.910156 -100.90625 15.03125 -102.03125 18.84375 -102.03125 C 22.582031 -102.03125 25.660156 -100.90625 28.078125 -98.65625 C 30.503906 -96.40625 31.71875 -93.582031 31.71875 -90.1875 C 31.71875 -86.875 30.503906 -84.09375 28.078125 -81.84375 C 25.660156 -79.59375 22.582031 -78.46875 18.84375 -78.46875 Z M 29.671875 -71.078125 L 29.671875 0 L 7.890625 0 L 7.890625 -71.078125 Z M 29.671875 -71.078125 "/></g></g><g style="fill:#ffffff;fill-opacity:1;"><g transform="translate(675.628747, 189.291764)"><path style="stroke:none" d="M 47.515625 -18.46875 L 47.515625 0 L 36.421875 0 C 28.523438 0 22.367188 -1.929688 17.953125 -5.796875 C 13.546875 -9.660156 11.34375 -15.960938 11.34375 -24.703125 L 11.34375 -52.984375 L 2.671875 -52.984375 L 2.671875 -71.078125 L 11.34375 -71.078125 L 11.34375 -88.390625 L 33.125 -88.390625 L 33.125 -71.078125 L 47.390625 -71.078125 L 47.390625 -52.984375 L 33.125 -52.984375 L 33.125 -24.453125 C 33.125 -22.328125 33.628906 -20.796875 34.640625 -19.859375 C 35.660156 -18.929688 37.359375 -18.46875 39.734375 -18.46875 Z M 47.515625 -18.46875 "/></g></g><g style="fill:#ffffff;fill-opacity:1;"><g transform="translate(719.319361, 189.291764)"><path style="stroke:none" d="M 80.5 -71.078125 L 35.921875 33.75 L 12.484375 33.75 L 28.78125 -2.421875 L -0.125 -71.078125 L 24.203125 -71.078125 L 40.625 -26.625 L 56.9375 -71.078125 Z M 80.5 -71.078125 "/></g></g><g style="fill:#000000;fill-opacity:1;"><g transform="translate(68.322748, 188.33638)"><path style="stroke:none" d="M 29.671875 -16.8125 L 58.203125 -16.8125 L 58.203125 0 L 7.890625 0 L 7.890625 -89.421875 L 29.671875 -89.421875 Z M 29.671875 -16.8125 "/></g></g><g style="fill:#000000;fill-opacity:1;"><g transform="translate(121.057223, 188.33638)"><path style="stroke:none" d="M 18.84375 -78.46875 C 15.03125 -78.46875 11.910156 -79.59375 9.484375 -81.84375 C 7.066406 -84.09375 5.859375 -86.875 5.859375 -90.1875 C 5.859375 -93.582031 7.066406 -96.40625 9.484375 -98.65625 C 11.910156 -100.90625 15.03125 -102.03125 18.84375 -102.03125 C 22.582031 -102.03125 25.660156 -100.90625 28.078125 -98.65625 C 30.503906 -96.40625 31.71875 -93.582031 31.71875 -90.1875 C 31.71875 -86.875 30.503906 -84.09375 28.078125 -81.84375 C 25.660156 -79.59375 22.582031 -78.46875 18.84375 -78.46875 Z M 29.671875 -71.078125 L 29.671875 0 L 7.890625 0 L 7.890625 -71.078125 Z M 29.671875 -71.078125 "/></g></g><g style="fill:#000000;fill-opacity:1;"><g transform="translate(150.608783, 188.33638)"><path style="stroke:none" d="M 51.203125 -71.84375 C 59.523438 -71.84375 66.171875 -69.144531 71.140625 -63.75 C 76.109375 -58.351562 78.59375 -50.945312 78.59375 -41.53125 L 78.59375 0 L 56.9375 0 L 56.9375 -38.59375 C 56.9375 -43.351562 55.703125 -47.046875 53.234375 -49.671875 C 50.773438 -52.304688 47.46875 -53.625 43.3125 -53.625 C 39.144531 -53.625 35.828125 -52.304688 33.359375 -49.671875 C 30.898438 -47.046875 29.671875 -43.351562 29.671875 -38.59375 L 29.671875 0 L 7.890625 0 L 7.890625 -71.078125 L 29.671875 -71.078125 L 29.671875 -61.65625 C 31.878906 -64.789062 34.851562 -67.269531 38.59375 -69.09375 C 42.332031 -70.925781 46.535156 -71.84375 51.203125 -71.84375 Z M 51.203125 -71.84375 "/></g></g><g style="fill:#000000;fill-opacity:1;"><g transform="translate(228.436853, 188.33638)"><path style="stroke:none" d="M 51.328125 0 L 29.671875 -29.8125 L 29.671875 0 L 7.890625 0 L 7.890625 -94.25 L 29.671875 -94.25 L 29.671875 -42.15625 L 51.203125 -71.078125 L 78.078125 -71.078125 L 48.53125 -35.40625 L 78.328125 0 Z M 51.328125 0 "/></g></g></g></svg>